<svg xmlns="http://www.w3.org/2000/svg" version="1.1" xmlns:xlink="http://www.w3.org/1999/xlink" xmlns:svgjs="http://svgjs.dev/svgjs" width="2000" height="358" viewBox="0 0 2000 358"><g transform="matrix(1,0,0,1,-1.2121212121212466,-1.1782474591705352)"><svg viewBox="0 0 396 71" data-background-color="#ffffff" preserveAspectRatio="xMidYMid meet" height="358" width="2000" xmlns="http://www.w3.org/2000/svg" xmlns:xlink="http://www.w3.org/1999/xlink"><g id="tight-bounds" transform="matrix(1,0,0,1,0.2400000000000091,0.23367477542208803)"><svg viewBox="0 0 395.52 70.53265044915582" height="70.53265044915582" width="395.52"><g><svg viewBox="0 0 395.52 70.53265044915582" height="70.53265044915582" width="395.52"><g><svg viewBox="0 0 395.52 70.53265044915582" height="70.53265044915582" width="395.52"><g><svg viewBox="0 0 499.89346074149637 89.14545592713077" height="70.53265044915582" width="395.52"><g transform="matrix(1,0,0,1,0,12.320392244632401)"><svg viewBox="0 0 395.52 64.50467143786597" height="64.50467143786597" width="395.52"><g id="textblocktransform"><svg viewBox="0 0 395.52 64.50467143786597" height="64.50467143786597" width="395.52" id="textblock"><g><svg viewBox="0 0 395.52 64.50467143786597" height="64.50467143786597" width="395.52"><g transform="matrix(1,0,0,1,0,0)"><svg width="395.52" viewBox="2.8 -37.1 230.53 37.6" height="64.50467143786597" data-palette-color="#729343"><path d="M19.8 0.5Q14.55 0.5 10.73-1.38 6.9-3.25 4.85-6.65 2.8-10.05 2.8-14.45L2.8-14.45Q2.8-20.35 5.5-25.15 8.2-29.95 13.1-32.73 18-35.5 24.35-35.5L24.35-35.5Q28.9-35.5 32.38-34 35.85-32.5 37.65-29.65L37.65-29.65 32.95-25.7Q30-29.8 23.9-29.8L23.9-29.8Q19.55-29.8 16.25-27.8 12.95-25.8 11.15-22.38 9.35-18.95 9.35-14.85L9.35-14.85Q9.35-10.4 12.2-7.8 15.05-5.2 20.3-5.2L20.3-5.2Q26.35-5.2 30.25-9.25L30.25-9.25 34.05-5.15Q31.55-2.3 27.9-0.9 24.25 0.5 19.8 0.5L19.8 0.5ZM67.55-4.8Q68.8-4.8 69.9-5.25L69.9-5.25 69.25-0.3Q67.5 0.35 65.35 0.35L65.35 0.35Q62.7 0.35 60.95-0.78 59.2-1.9 58.6-3.9L58.6-3.9Q56.8-1.85 54.32-0.75 51.85 0.35 48.8 0.35L48.8 0.35Q45.5 0.35 42.82-1.05 40.15-2.45 38.6-5.13 37.05-7.8 37.05-11.4L37.05-11.4Q37.05-15.85 39.02-19.43 41-23 44.42-25 47.85-27 52.1-27L52.1-27Q58.5-27 61.2-22.75L61.2-22.75 61.95-26.7 68.2-26.7 64.6-8.75Q64.45-8.15 64.45-7.6L64.45-7.6Q64.45-6.25 65.25-5.53 66.05-4.8 67.55-4.8L67.55-4.8ZM50.4-5Q53.05-5 55.12-6.28 57.2-7.55 58.4-9.83 59.6-12.1 59.6-15L59.6-15Q59.6-18.15 57.75-19.93 55.9-21.7 52.55-21.7L52.55-21.7Q49.9-21.7 47.82-20.43 45.75-19.15 44.55-16.88 43.35-14.6 43.35-11.7L43.35-11.7Q43.35-8.55 45.2-6.78 47.05-5 50.4-5L50.4-5ZM82.6 0.35Q79.2 0.35 76.12-0.48 73.05-1.3 71.35-2.55L71.35-2.55 73.95-7.35Q75.6-6.15 78.1-5.45 80.6-4.75 83.25-4.75L83.25-4.75Q86.25-4.75 87.77-5.58 89.3-6.4 89.3-7.95L89.3-7.95Q89.3-9.15 88.02-9.7 86.75-10.25 84-10.85L84-10.85Q81.15-11.4 79.32-12.03 77.5-12.65 76.17-14.08 74.85-15.5 74.85-18L74.85-18Q74.85-22.15 78.32-24.58 81.8-27 87.55-27L87.55-27Q90.3-27 92.9-26.38 95.5-25.75 97.15-24.7L97.15-24.7 94.85-19.9Q93.2-20.95 91.12-21.45 89.05-21.95 86.95-21.95L86.95-21.95Q84-21.95 82.47-21.05 80.95-20.15 80.95-18.7L80.95-18.7Q80.95-17.4 82.27-16.82 83.6-16.25 86.4-15.65L86.4-15.65Q89.2-15.1 91-14.48 92.8-13.85 94.1-12.45 95.4-11.05 95.4-8.65L95.4-8.65Q95.4-4.35 91.9-2 88.4 0.35 82.6 0.35L82.6 0.35ZM119.09-27Q123.59-27 126.22-24.65 128.84-22.3 128.84-17.95L128.84-17.95Q128.84-16.75 128.49-14.8L128.49-14.8 125.54 0 119.29 0 122.19-14.65Q122.39-15.65 122.39-16.7L122.39-16.7Q122.39-21.55 117.04-21.55L117.04-21.55Q113.59-21.55 111.34-19.63 109.09-17.7 108.29-13.85L108.29-13.85 105.49 0 99.24 0 106.64-37.1 112.89-37.1 110.29-24.05Q113.74-27 119.09-27L119.09-27ZM168.39-35Q174.74-35 178.21-32.23 181.69-29.45 181.69-24.45L181.69-24.45Q181.69-20 179.66-16.78 177.64-13.55 173.86-11.83 170.09-10.1 164.99-10.1L164.99-10.1 156.44-10.1 154.39 0 147.89 0 154.89-35 168.39-35ZM165.24-15.6Q169.99-15.6 172.56-17.73 175.14-19.85 175.14-23.85L175.14-23.85Q175.14-26.65 173.21-28.08 171.29-29.5 167.69-29.5L167.69-29.5 160.29-29.5 157.54-15.6 165.24-15.6ZM213.74-4.8Q214.99-4.8 216.09-5.25L216.09-5.25 215.44-0.3Q213.69 0.35 211.54 0.35L211.54 0.35Q208.89 0.35 207.14-0.78 205.39-1.9 204.79-3.9L204.79-3.9Q202.99-1.85 200.51-0.75 198.04 0.35 194.99 0.35L194.99 0.35Q191.69 0.35 189.01-1.05 186.34-2.45 184.79-5.13 183.24-7.8 183.24-11.4L183.24-11.4Q183.24-15.85 185.21-19.43 187.19-23 190.61-25 194.04-27 198.29-27L198.29-27Q204.69-27 207.39-22.75L207.39-22.75 208.14-26.7 214.39-26.7 210.79-8.75Q210.64-8.15 210.64-7.6L210.64-7.6Q210.64-6.25 211.44-5.53 212.24-4.8 213.74-4.8L213.74-4.8ZM196.59-5Q199.24-5 201.31-6.28 203.39-7.55 204.59-9.83 205.79-12.1 205.79-15L205.79-15Q205.79-18.15 203.94-19.93 202.09-21.7 198.74-21.7L198.74-21.7Q196.09-21.7 194.01-20.43 191.94-19.15 190.74-16.88 189.54-14.6 189.54-11.7L189.54-11.7Q189.54-8.55 191.39-6.78 193.24-5 196.59-5L196.59-5ZM228.38 0.35Q224.98 0.35 223.06-1.45 221.13-3.25 221.13-6.45L221.13-6.45Q221.13-7.35 221.38-8.7L221.38-8.7 227.08-37.1 233.33-37.1 227.63-8.75Q227.53-8.35 227.53-7.6L227.53-7.6Q227.53-4.8 230.53-4.8L230.53-4.8Q231.78-4.8 232.88-5.25L232.88-5.25 232.23-0.3Q230.48 0.35 228.38 0.35L228.38 0.35Z" opacity="1" transform="matrix(1,0,0,1,0,0)" fill="#ffffff" class="wordmark-text-0" data-fill-palette-color="primary" id="text-0"></path></svg></g></svg></g></svg></g></svg></g><g transform="matrix(1,0,0,1,410.74800481436563,0)"><svg viewBox="0 0 89.14545592713077 89.14545592713077" height="89.14545592713077" width="89.14545592713077"><g><svg xmlns="http://www.w3.org/2000/svg" xmlns:xlink="http://www.w3.org/1999/xlink" version="1.1" x="0" y="0" viewBox="0 0 99.905 99.905" enable-background="new 0 0 100 100" xml:space="preserve" height="89.14545592713077" width="89.14545592713077" class="icon-icon-0" data-fill-palette-color="accent" id="icon-0"><path d="M49.952 0C22.365 0 0 22.365 0 49.952 0 77.54 22.365 99.905 49.952 99.905c27.588 0 49.953-22.365 49.953-49.953C99.905 22.365 77.54 0 49.952 0zM56.475 77.75v0.758c-0.167 3.054-0.591 4.409-1.86 5.597-1.271 1.184-2.883 1.868-4.662 1.868-4.068 0-6.44-2.885-6.44-7.8V78v-0.25c-3.729-1.188-5.762-2.035-7.881-3.478-4.236-2.711-6.356-5.847-6.356-9.404 0-3.731 2.542-6.528 6.019-6.528 2.033 0 3.812 0.849 6.185 2.712 5.168 4.325 6.271 4.916 9.32 4.916 3.816 0 6.698-2.71 6.698-6.186 0-3.56-2.544-5.677-8.985-7.205l-6.948-1.692c-6.865-1.695-11.101-6.951-11.101-13.731 0-4.999 2.119-9.659 5.763-12.457 1.864-1.441 3.643-2.374 6.863-3.644 0.084-1.78 0.338-2.711 0.762-3.729 1.102-2.035 3.392-3.39 5.764-3.39 3.644 0 6.102 2.543 6.441 6.693l1.441 0.51c3.811 1.186 5.508 2.118 7.372 3.729 2.204 2.033 3.219 3.982 3.219 6.186 0 3.389-2.628 6.186-5.677 6.186-1.186 0-2.541-0.425-3.645-1.271-0.338-0.254-1.355-1.017-2.882-2.288-2.204-1.695-3.98-2.373-6.27-2.373-3.56 0-6.187 2.119-6.187 5.17 0 1.865 1.017 3.133 3.136 4.068 0.848 0.423 1.948 0.679 5.763 1.609 12.881 2.881 18.307 8.221 18.307 17.879C70.633 68.598 64.783 75.968 56.475 77.75z" fill="#ffffff" data-fill-palette-color="accent"></path></svg></g></svg></g></svg></g></svg></g></svg></g><defs></defs></svg><rect width="395.52" height="70.53265044915582" fill="none" stroke="none" visibility="hidden"></rect></g></svg></g></svg>